<svg width="1600" height="560" viewBox="0 0 1600 560" fill="none" xmlns="http://www.w3.org/2000/svg">
  <defs>
    <linearGradient id="lineA" x1="120" y1="64" x2="1420" y2="380" gradientUnits="userSpaceOnUse">
      <stop stop-color="#22D3EE" stop-opacity="0.9"/>
      <stop offset="1" stop-color="#818CF8" stop-opacity="0.95"/>
    </linearGradient>
    <linearGradient id="lineB" x1="100" y1="160" x2="1430" y2="430" gradientUnits="userSpaceOnUse">
      <stop stop-color="#34D399" stop-opacity="0.8"/>
      <stop offset="1" stop-color="#60A5FA" stop-opacity="0.9"/>
    </linearGradient>
    <linearGradient id="lineC" x1="140" y1="220" x2="1400" y2="460" gradientUnits="userSpaceOnUse">
      <stop stop-color="#A78BFA" stop-opacity="0.75"/>
      <stop offset="1" stop-color="#38BDF8" stop-opacity="0.9"/>
    </linearGradient>
    <filter id="glow" x="-10%" y="-20%" width="120%" height="150%" color-interpolation-filters="sRGB">
      <feGaussianBlur stdDeviation="2.4" result="blur"/>
      <feMerge>
        <feMergeNode in="blur"/>
        <feMergeNode in="SourceGraphic"/>
      </feMerge>
    </filter>
  </defs>

  <g opacity="0.25">
    <path d="M0 70H1600" stroke="#94A3B8" stroke-opacity="0.35" stroke-width="1"/>
    <path d="M0 140H1600" stroke="#94A3B8" stroke-opacity="0.24" stroke-width="1"/>
    <path d="M0 210H1600" stroke="#94A3B8" stroke-opacity="0.2" stroke-width="1"/>
    <path d="M0 280H1600" stroke="#94A3B8" stroke-opacity="0.18" stroke-width="1"/>
    <path d="M0 350H1600" stroke="#94A3B8" stroke-opacity="0.14" stroke-width="1"/>
    <path d="M0 420H1600" stroke="#94A3B8" stroke-opacity="0.12" stroke-width="1"/>
    <path d="M0 490H1600" stroke="#94A3B8" stroke-opacity="0.1" stroke-width="1"/>
  </g>

  <g opacity="0.18">
    <path d="M120 0V560" stroke="#94A3B8" stroke-width="1"/>
    <path d="M280 0V560" stroke="#94A3B8" stroke-width="1"/>
    <path d="M440 0V560" stroke="#94A3B8" stroke-width="1"/>
    <path d="M600 0V560" stroke="#94A3B8" stroke-width="1"/>
    <path d="M760 0V560" stroke="#94A3B8" stroke-width="1"/>
    <path d="M920 0V560" stroke="#94A3B8" stroke-width="1"/>
    <path d="M1080 0V560" stroke="#94A3B8" stroke-width="1"/>
    <path d="M1240 0V560" stroke="#94A3B8" stroke-width="1"/>
    <path d="M1400 0V560" stroke="#94A3B8" stroke-width="1"/>
  </g>

  <g filter="url(#glow)">
    <path d="M80 360C170 320 250 360 330 290C410 220 500 250 570 200C640 150 710 180 790 140C870 100 980 140 1060 110C1140 80 1220 130 1310 100C1400 70 1460 98 1520 88" stroke="url(#lineA)" stroke-width="4" stroke-linecap="round" stroke-linejoin="round"/>
    <path d="M70 420C150 400 230 420 320 380C410 340 500 370 590 330C680 290 740 320 830 284C920 248 1020 285 1100 250C1180 215 1280 248 1360 220C1440 192 1500 215 1560 205" stroke="url(#lineB)" stroke-width="3.4" stroke-linecap="round" stroke-linejoin="round"/>
    <path d="M90 470C180 450 260 470 340 450C420 430 500 450 580 430C660 408 740 430 820 410C900 390 980 420 1060 398C1140 376 1220 405 1300 382C1380 358 1450 372 1520 360" stroke="url(#lineC)" stroke-width="2.8" stroke-linecap="round" stroke-linejoin="round"/>
  </g>

  <g opacity="0.75">
    <rect x="214" y="278" width="12" height="42" rx="2" fill="#22D3EE"/>
    <rect x="214" y="250" width="2" height="96" fill="#67E8F9"/>
    <rect x="366" y="238" width="12" height="56" rx="2" fill="#F472B6"/>
    <rect x="370" y="220" width="2" height="90" fill="#FDA4AF"/>
    <rect x="520" y="198" width="12" height="68" rx="2" fill="#22D3EE"/>
    <rect x="524" y="170" width="2" height="118" fill="#67E8F9"/>
    <rect x="684" y="172" width="12" height="48" rx="2" fill="#22D3EE"/>
    <rect x="688" y="148" width="2" height="88" fill="#67E8F9"/>
    <rect x="844" y="142" width="12" height="60" rx="2" fill="#F472B6"/>
    <rect x="848" y="112" width="2" height="106" fill="#FDA4AF"/>
    <rect x="1006" y="126" width="12" height="50" rx="2" fill="#22D3EE"/>
    <rect x="1010" y="100" width="2" height="92" fill="#67E8F9"/>
    <rect x="1168" y="104" width="12" height="66" rx="2" fill="#22D3EE"/>
    <rect x="1172" y="84" width="2" height="104" fill="#67E8F9"/>
    <rect x="1328" y="86" width="12" height="46" rx="2" fill="#F472B6"/>
    <rect x="1332" y="60" width="2" height="92" fill="#FDA4AF"/>
  </g>
</svg>
