<svg width="1600" height="900" viewBox="0 0 1600 900" fill="none" xmlns="http://www.w3.org/2000/svg">
  <defs>
    <linearGradient id="bg" x1="0" y1="0" x2="1600" y2="900" gradientUnits="userSpaceOnUse">
      <stop offset="0" stop-color="#020617"/>
      <stop offset="0.55" stop-color="#0F172A"/>
      <stop offset="1" stop-color="#111827"/>
    </linearGradient>
    <linearGradient id="panel" x1="0" y1="0" x2="1" y2="1">
      <stop offset="0" stop-color="#1E293B" stop-opacity="0.74"/>
      <stop offset="1" stop-color="#0B1228" stop-opacity="0.44"/>
    </linearGradient>
    <linearGradient id="lineBlue" x1="0" y1="0" x2="1" y2="0">
      <stop offset="0" stop-color="#38BDF8"/>
      <stop offset="1" stop-color="#2563EB"/>
    </linearGradient>
    <linearGradient id="lineGreen" x1="0" y1="0" x2="1" y2="0">
      <stop offset="0" stop-color="#22C55E"/>
      <stop offset="1" stop-color="#14B8A6"/>
    </linearGradient>
    <linearGradient id="lineIndigo" x1="0" y1="0" x2="1" y2="0">
      <stop offset="0" stop-color="#A78BFA"/>
      <stop offset="1" stop-color="#6366F1"/>
    </linearGradient>
    <filter id="soft" x="-10%" y="-10%" width="120%" height="120%">
      <feGaussianBlur stdDeviation="22"/>
    </filter>
    <filter id="glow" x="-20%" y="-20%" width="140%" height="140%">
      <feGaussianBlur stdDeviation="6"/>
    </filter>
    <pattern id="grid" width="48" height="48" patternUnits="userSpaceOnUse">
      <path d="M48 0H0V48" stroke="#334155" stroke-opacity="0.35"/>
    </pattern>
  </defs>

  <rect width="1600" height="900" fill="url(#bg)"/>
  <rect width="1600" height="900" fill="url(#grid)" opacity="0.35"/>

  <circle cx="210" cy="160" r="180" fill="#4338CA" fill-opacity="0.26" filter="url(#soft)"/>
  <circle cx="1460" cy="210" r="220" fill="#2563EB" fill-opacity="0.24" filter="url(#soft)"/>
  <circle cx="980" cy="760" r="250" fill="#0EA5E9" fill-opacity="0.22" filter="url(#soft)"/>

  <g opacity="0.7" filter="url(#soft)">
    <rect x="130" y="140" width="560" height="230" rx="26" fill="url(#panel)"/>
    <rect x="740" y="95" width="690" height="275" rx="28" fill="url(#panel)"/>
    <rect x="220" y="430" width="520" height="270" rx="26" fill="url(#panel)"/>
    <rect x="790" y="430" width="660" height="320" rx="28" fill="url(#panel)"/>
  </g>

  <g filter="url(#glow)" opacity="0.85">
    <path d="M170 280C240 250 280 270 345 236C405 205 450 235 505 205C560 176 612 206 680 164" stroke="url(#lineBlue)" stroke-width="6" stroke-linecap="round" stroke-linejoin="round"/>
    <path d="M780 245C852 230 906 182 975 194C1046 206 1115 168 1193 194C1260 216 1322 175 1392 188" stroke="url(#lineGreen)" stroke-width="6" stroke-linecap="round" stroke-linejoin="round"/>
    <path d="M260 624C332 604 396 558 474 584C562 614 618 544 702 570" stroke="url(#lineIndigo)" stroke-width="6" stroke-linecap="round" stroke-linejoin="round"/>
    <path d="M840 655C910 624 972 660 1043 612C1114 564 1164 612 1245 586C1316 562 1372 590 1442 552" stroke="url(#lineBlue)" stroke-width="6" stroke-linecap="round" stroke-linejoin="round"/>
  </g>

  <g opacity="0.7">
    <rect x="860" y="515" width="18" height="95" rx="9" fill="#22C55E"/>
    <rect x="896" y="536" width="18" height="74" rx="9" fill="#EF4444"/>
    <rect x="932" y="496" width="18" height="114" rx="9" fill="#22C55E"/>
    <rect x="968" y="552" width="18" height="58" rx="9" fill="#EF4444"/>
    <rect x="1004" y="528" width="18" height="82" rx="9" fill="#22C55E"/>
    <rect x="1040" y="572" width="18" height="38" rx="9" fill="#EF4444"/>
    <rect x="1076" y="538" width="18" height="72" rx="9" fill="#22C55E"/>
    <rect x="1112" y="494" width="18" height="116" rx="9" fill="#22C55E"/>
    <rect x="1148" y="548" width="18" height="62" rx="9" fill="#EF4444"/>
    <rect x="1184" y="520" width="18" height="90" rx="9" fill="#22C55E"/>
  </g>

  <rect x="0" y="0" width="1600" height="900" fill="url(#bg)" opacity="0.22"/>
</svg>
